<svg id="_0177_coding_1" xmlns="http://www.w3.org/2000/svg" xmlns:xlink="http://www.w3.org/1999/xlink" viewBox="0 0 500 500" data-imageid="coding-1-37" imageName="Coding 1" class="illustrations_image" style="width: 188px;"><defs><style>.cls-1_coding-1-37{fill:url(#linear-gradient);}.cls-1_coding-1-37,.cls-2_coding-1-37,.cls-3_coding-1-37,.cls-4_coding-1-37,.cls-5_coding-1-37,.cls-6_coding-1-37,.cls-7_coding-1-37,.cls-8_coding-1-37,.cls-9_coding-1-37,.cls-10_coding-1-37,.cls-11_coding-1-37,.cls-12_coding-1-37,.cls-13_coding-1-37,.cls-14_coding-1-37,.cls-15_coding-1-37,.cls-16_coding-1-37,.cls-17_coding-1-37,.cls-18_coding-1-37,.cls-19_coding-1-37,.cls-20_coding-1-37,.cls-21_coding-1-37,.cls-22_coding-1-37,.cls-23_coding-1-37,.cls-24_coding-1-37,.cls-25_coding-1-37,.cls-26_coding-1-37,.cls-27_coding-1-37,.cls-28_coding-1-37,.cls-29_coding-1-37,.cls-30_coding-1-37,.cls-31_coding-1-37,.cls-32_coding-1-37,.cls-33_coding-1-37,.cls-34_coding-1-37,.cls-35_coding-1-37,.cls-36_coding-1-37,.cls-37_coding-1-37,.cls-38_coding-1-37,.cls-39_coding-1-37,.cls-40_coding-1-37,.cls-41_coding-1-37,.cls-42_coding-1-37,.cls-43_coding-1-37,.cls-44_coding-1-37,.cls-45_coding-1-37,.cls-46_coding-1-37,.cls-47_coding-1-37,.cls-48_coding-1-37,.cls-49_coding-1-37,.cls-50_coding-1-37,.cls-51_coding-1-37,.cls-52_coding-1-37,.cls-53_coding-1-37,.cls-54_coding-1-37,.cls-55_coding-1-37,.cls-56_coding-1-37,.cls-57_coding-1-37,.cls-58_coding-1-37,.cls-59_coding-1-37,.cls-60_coding-1-37,.cls-61_coding-1-37,.cls-62_coding-1-37,.cls-63_coding-1-37,.cls-64_coding-1-37,.cls-65_coding-1-37,.cls-66_coding-1-37,.cls-67_coding-1-37,.cls-68_coding-1-37,.cls-69_coding-1-37,.cls-70_coding-1-37,.cls-71_coding-1-37{stroke-width:0px;}.cls-2_coding-1-37,.cls-72_coding-1-37{opacity:.52;}.cls-2_coding-1-37,.cls-67_coding-1-37,.cls-68_coding-1-37{isolation:isolate;}.cls-2_coding-1-37,.cls-68_coding-1-37,.cls-71_coding-1-37{fill:#68e1fd;}.cls-3_coding-1-37{fill:url(#linear-gradient-38-coding-1-37);}.cls-4_coding-1-37{fill:url(#linear-gradient-33-coding-1-37);}.cls-5_coding-1-37{fill:url(#linear-gradient-29-coding-1-37);}.cls-6_coding-1-37{fill:url(#linear-gradient-32-coding-1-37);}.cls-7_coding-1-37{fill:url(#linear-gradient-30-coding-1-37);}.cls-8_coding-1-37{fill:url(#linear-gradient-31-coding-1-37);}.cls-9_coding-1-37{fill:url(#linear-gradient-36-coding-1-37);}.cls-10_coding-1-37{fill:url(#linear-gradient-39-coding-1-37);}.cls-11_coding-1-37{fill:url(#linear-gradient-34-coding-1-37);}.cls-12_coding-1-37{fill:url(#linear-gradient-37-coding-1-37);}.cls-13_coding-1-37{fill:url(#linear-gradient-35-coding-1-37);}.cls-14_coding-1-37{fill:url(#linear-gradient-28-coding-1-37);}.cls-15_coding-1-37{fill:url(#linear-gradient-25-coding-1-37);}.cls-16_coding-1-37{fill:url(#linear-gradient-11-coding-1-37);}.cls-17_coding-1-37{fill:url(#linear-gradient-12-coding-1-37);}.cls-18_coding-1-37{fill:url(#linear-gradient-13-coding-1-37);}.cls-19_coding-1-37{fill:url(#linear-gradient-10-coding-1-37);}.cls-20_coding-1-37{fill:url(#linear-gradient-17-coding-1-37);}.cls-21_coding-1-37{fill:url(#linear-gradient-16-coding-1-37);}.cls-22_coding-1-37{fill:url(#linear-gradient-19-coding-1-37);}.cls-23_coding-1-37{fill:url(#linear-gradient-15-coding-1-37);}.cls-24_coding-1-37{fill:url(#linear-gradient-23-coding-1-37);}.cls-25_coding-1-37{fill:url(#linear-gradient-21-coding-1-37);}.cls-26_coding-1-37{fill:url(#linear-gradient-18-coding-1-37);}.cls-27_coding-1-37{fill:url(#linear-gradient-14-coding-1-37);}.cls-28_coding-1-37{fill:url(#linear-gradient-22-coding-1-37);}.cls-29_coding-1-37{fill:url(#linear-gradient-20-coding-1-37);}.cls-30_coding-1-37{fill:url(#linear-gradient-27-coding-1-37);}.cls-31_coding-1-37{fill:url(#linear-gradient-24-coding-1-37);}.cls-32_coding-1-37{fill:url(#linear-gradient-26-coding-1-37);}.cls-33_coding-1-37{fill:url(#linear-gradient-45-coding-1-37);}.cls-34_coding-1-37{fill:url(#linear-gradient-46-coding-1-37);}.cls-35_coding-1-37{fill:url(#linear-gradient-44-coding-1-37);}.cls-36_coding-1-37{fill:url(#linear-gradient-48-coding-1-37);}.cls-37_coding-1-37{fill:url(#linear-gradient-49-coding-1-37);}.cls-38_coding-1-37{fill:url(#linear-gradient-47-coding-1-37);}.cls-39_coding-1-37{fill:url(#linear-gradient-42-coding-1-37);}.cls-40_coding-1-37{fill:url(#linear-gradient-43-coding-1-37);}.cls-41_coding-1-37{fill:url(#linear-gradient-40-coding-1-37);}.cls-42_coding-1-37{fill:url(#linear-gradient-41-coding-1-37);}.cls-43_coding-1-37{fill:url(#linear-gradient-59-coding-1-37);}.cls-44_coding-1-37{fill:url(#linear-gradient-57-coding-1-37);}.cls-45_coding-1-37{fill:url(#linear-gradient-58-coding-1-37);}.cls-46_coding-1-37{fill:url(#linear-gradient-55-coding-1-37);}.cls-47_coding-1-37{fill:url(#linear-gradient-56-coding-1-37);}.cls-48_coding-1-37{fill:url(#linear-gradient-53-coding-1-37);}.cls-49_coding-1-37{fill:url(#linear-gradient-51-coding-1-37);}.cls-50_coding-1-37{fill:url(#linear-gradient-52-coding-1-37);}.cls-51_coding-1-37{fill:url(#linear-gradient-50-coding-1-37);}.cls-52_coding-1-37{fill:url(#linear-gradient-54-coding-1-37);}.cls-53_coding-1-37{fill:url(#linear-gradient-60-coding-1-37);}.cls-54_coding-1-37{fill:url(#linear-gradient-61-coding-1-37);}.cls-55_coding-1-37{fill:url(#linear-gradient-62-coding-1-37);}.cls-56_coding-1-37{fill:url(#linear-gradient-65-coding-1-37);}.cls-57_coding-1-37{fill:url(#linear-gradient-63-coding-1-37);}.cls-58_coding-1-37{fill:url(#linear-gradient-64-coding-1-37);}.cls-59_coding-1-37{fill:url(#linear-gradient-4-coding-1-37);}.cls-60_coding-1-37{fill:url(#linear-gradient-2-coding-1-37);}.cls-61_coding-1-37{fill:url(#linear-gradient-3-coding-1-37);}.cls-62_coding-1-37{fill:url(#linear-gradient-8-coding-1-37);}.cls-63_coding-1-37{fill:url(#linear-gradient-9-coding-1-37);}.cls-64_coding-1-37{fill:url(#linear-gradient-7-coding-1-37);}.cls-65_coding-1-37{fill:url(#linear-gradient-5-coding-1-37);}.cls-66_coding-1-37{fill:url(#linear-gradient-6-coding-1-37);}.cls-67_coding-1-37{opacity:.27;}.cls-67_coding-1-37,.cls-69_coding-1-37{fill:#fff;}.cls-68_coding-1-37{opacity:.24;}.cls-70_coding-1-37{fill:#ffb4a3;}</style><linearGradient id="linear-gradient-coding-1-37" x1="264.57" y1="2538.53" x2="266.58" y2="2475.27" gradientTransform="translate(-31 2871.49) scale(1 -1)" gradientUnits="userSpaceOnUse"><stop offset="0" stop-color="#231f20" stop-opacity="0"/><stop offset="1" stop-color="#231f20"/></linearGradient><linearGradient id="linear-gradient-2-coding-1-37" x1="203.42" y1="2574.44" x2="221.4" y2="2520.48" xlink:href="#linear-gradient-coding-1-37"/><linearGradient id="linear-gradient-3-coding-1-37" x1="203.42" y1="2565.35" x2="221.4" y2="2511.38" xlink:href="#linear-gradient-coding-1-37"/><linearGradient id="linear-gradient-4-coding-1-37" x1="203.42" y1="2556.25" x2="221.4" y2="2502.29" xlink:href="#linear-gradient-coding-1-37"/><linearGradient id="linear-gradient-5-coding-1-37" x1="203.42" y1="2547.16" x2="221.4" y2="2493.19" xlink:href="#linear-gradient-coding-1-37"/><linearGradient id="linear-gradient-6-coding-1-37" x1="215.14" y1="2574.44" x2="233.13" y2="2520.48" xlink:href="#linear-gradient-coding-1-37"/><linearGradient id="linear-gradient-7-coding-1-37" x1="215.14" y1="2565.34" x2="233.13" y2="2511.38" xlink:href="#linear-gradient-coding-1-37"/><linearGradient id="linear-gradient-8-coding-1-37" x1="215.14" y1="2556.25" x2="233.13" y2="2502.29" xlink:href="#linear-gradient-coding-1-37"/><linearGradient id="linear-gradient-9-coding-1-37" x1="215.13" y1="2547.16" x2="233.13" y2="2493.19" xlink:href="#linear-gradient-coding-1-37"/><linearGradient id="linear-gradient-10-coding-1-37" x1="226.87" y1="2574.44" x2="244.85" y2="2520.48" xlink:href="#linear-gradient-coding-1-37"/><linearGradient id="linear-gradient-11-coding-1-37" x1="226.87" y1="2565.35" x2="244.85" y2="2511.38" xlink:href="#linear-gradient-coding-1-37"/><linearGradient id="linear-gradient-12-coding-1-37" x1="226.87" y1="2556.25" x2="244.85" y2="2502.29" xlink:href="#linear-gradient-coding-1-37"/><linearGradient id="linear-gradient-13-coding-1-37" x1="226.86" y1="2547.16" x2="244.85" y2="2493.19" xlink:href="#linear-gradient-coding-1-37"/><linearGradient id="linear-gradient-14-coding-1-37" x1="238.58" y1="2574.44" x2="256.58" y2="2520.48" xlink:href="#linear-gradient-coding-1-37"/><linearGradient id="linear-gradient-15-coding-1-37" x1="238.58" y1="2565.34" x2="256.58" y2="2511.38" xlink:href="#linear-gradient-coding-1-37"/><linearGradient id="linear-gradient-16-coding-1-37" x1="238.58" y1="2556.25" x2="256.58" y2="2502.29" xlink:href="#linear-gradient-coding-1-37"/><linearGradient id="linear-gradient-17-coding-1-37" x1="250.31" y1="2574.44" x2="268.3" y2="2520.48" xlink:href="#linear-gradient-coding-1-37"/><linearGradient id="linear-gradient-18-coding-1-37" x1="250.31" y1="2565.35" x2="268.3" y2="2511.38" xlink:href="#linear-gradient-coding-1-37"/><linearGradient id="linear-gradient-19-coding-1-37" x1="250.31" y1="2556.25" x2="268.3" y2="2502.29" xlink:href="#linear-gradient-coding-1-37"/><linearGradient id="linear-gradient-20-coding-1-37" x1="262.03" y1="2574.44" x2="280.02" y2="2520.48" xlink:href="#linear-gradient-coding-1-37"/><linearGradient id="linear-gradient-21-coding-1-37" x1="262.03" y1="2565.34" x2="280.02" y2="2511.38" xlink:href="#linear-gradient-coding-1-37"/><linearGradient id="linear-gradient-22-coding-1-37" x1="262.03" y1="2556.25" x2="280.02" y2="2502.29" xlink:href="#linear-gradient-coding-1-37"/><linearGradient id="linear-gradient-23-coding-1-37" x1="273.76" y1="2574.44" x2="291.74" y2="2520.48" xlink:href="#linear-gradient-coding-1-37"/><linearGradient id="linear-gradient-24-coding-1-37" x1="273.76" y1="2565.35" x2="291.74" y2="2511.38" xlink:href="#linear-gradient-coding-1-37"/><linearGradient id="linear-gradient-25-coding-1-37" x1="273.76" y1="2556.25" x2="291.74" y2="2502.29" xlink:href="#linear-gradient-coding-1-37"/><linearGradient id="linear-gradient-26-coding-1-37" x1="285.47" y1="2574.44" x2="303.47" y2="2520.48" xlink:href="#linear-gradient-coding-1-37"/><linearGradient id="linear-gradient-27-coding-1-37" x1="285.47" y1="2565.34" x2="303.47" y2="2511.38" xlink:href="#linear-gradient-coding-1-37"/><linearGradient id="linear-gradient-28-coding-1-37" x1="285.47" y1="2556.25" x2="303.47" y2="2502.29" xlink:href="#linear-gradient-coding-1-37"/><linearGradient id="linear-gradient-29-coding-1-37" x1="297.2" y1="2574.44" x2="315.18" y2="2520.47" xlink:href="#linear-gradient-coding-1-37"/><linearGradient id="linear-gradient-30-coding-1-37" x1="297.2" y1="2565.34" x2="315.18" y2="2511.38" xlink:href="#linear-gradient-coding-1-37"/><linearGradient id="linear-gradient-31-coding-1-37" x1="297.2" y1="2556.25" x2="315.18" y2="2502.29" xlink:href="#linear-gradient-coding-1-37"/><linearGradient id="linear-gradient-32-coding-1-37" x1="297.19" y1="2547.15" x2="315.18" y2="2493.19" xlink:href="#linear-gradient-coding-1-37"/><linearGradient id="linear-gradient-33-coding-1-37" x1="308.92" y1="2574.44" x2="326.91" y2="2520.48" xlink:href="#linear-gradient-coding-1-37"/><linearGradient id="linear-gradient-34-coding-1-37" x1="308.92" y1="2565.35" x2="326.91" y2="2511.38" xlink:href="#linear-gradient-coding-1-37"/><linearGradient id="linear-gradient-35-coding-1-37" x1="308.92" y1="2556.25" x2="326.91" y2="2502.29" xlink:href="#linear-gradient-coding-1-37"/><linearGradient id="linear-gradient-36-coding-1-37" x1="308.92" y1="2547.16" x2="326.9" y2="2493.19" xlink:href="#linear-gradient-coding-1-37"/><linearGradient id="linear-gradient-37-coding-1-37" x1="320.64" y1="2574.44" x2="338.63" y2="2520.48" xlink:href="#linear-gradient-coding-1-37"/><linearGradient id="linear-gradient-38-coding-1-37" x1="320.64" y1="2565.34" x2="338.63" y2="2511.38" xlink:href="#linear-gradient-coding-1-37"/><linearGradient id="linear-gradient-39-coding-1-37" x1="320.64" y1="2556.25" x2="338.63" y2="2502.29" xlink:href="#linear-gradient-coding-1-37"/><linearGradient id="linear-gradient-40-coding-1-37" x1="320.64" y1="2547.16" x2="338.63" y2="2493.19" xlink:href="#linear-gradient-coding-1-37"/><linearGradient id="linear-gradient-41-coding-1-37" x1="258.65" y1="2554.23" x2="258.18" y2="2472.72" xlink:href="#linear-gradient-coding-1-37"/><linearGradient id="linear-gradient-42-coding-1-37" x1="291.77" y1="-753.45" x2="288.24" y2="-564.55" gradientTransform="translate(-119.24 791.63)" gradientUnits="userSpaceOnUse"><stop offset="0" stop-color="#fff" stop-opacity="0"/><stop offset=".99" stop-color="#fff"/></linearGradient><linearGradient id="linear-gradient-43-coding-1-37" x1="282.41" y1="-743.5" x2="279.14" y2="-568.85" xlink:href="#linear-gradient-42-coding-1-37"/><linearGradient id="linear-gradient-44-coding-1-37" x1="377.21" y1="-744.08" x2="373.88" y2="-566.32" xlink:href="#linear-gradient-42-coding-1-37"/><linearGradient id="linear-gradient-45-coding-1-37" x1="311.25" y1="-734.17" x2="308.18" y2="-571.26" xlink:href="#linear-gradient-42-coding-1-37"/><linearGradient id="linear-gradient-46-coding-1-37" x1="333.16" y1="-725.76" x2="330.29" y2="-573.04" xlink:href="#linear-gradient-42-coding-1-37"/><linearGradient id="linear-gradient-47-coding-1-37" x1="390.41" y1="-724.38" x2="387.57" y2="-572.17" xlink:href="#linear-gradient-42-coding-1-37"/><linearGradient id="linear-gradient-48-coding-1-37" x1="327.66" y1="-717.12" x2="325" y2="-574.86" xlink:href="#linear-gradient-42-coding-1-37"/><linearGradient id="linear-gradient-49-coding-1-37" x1="398.12" y1="-718.81" x2="395.4" y2="-573.31" xlink:href="#linear-gradient-42-coding-1-37"/><linearGradient id="linear-gradient-50-coding-1-37" x1="303.42" y1="-673.73" x2="300.97" y2="-542.74" xlink:href="#linear-gradient-42-coding-1-37"/><linearGradient id="linear-gradient-51-coding-1-37" x1="295.31" y1="-667.18" x2="293.05" y2="-545.91" xlink:href="#linear-gradient-42-coding-1-37"/><linearGradient id="linear-gradient-52-coding-1-37" x1="373.07" y1="-671.49" x2="370.65" y2="-542.69" xlink:href="#linear-gradient-42-coding-1-37"/><linearGradient id="linear-gradient-53-coding-1-37" x1="318.73" y1="-662.84" x2="316.56" y2="-547.18" xlink:href="#linear-gradient-42-coding-1-37"/><linearGradient id="linear-gradient-54-coding-1-37" x1="336.73" y1="-658.68" x2="334.65" y2="-548.27" xlink:href="#linear-gradient-42-coding-1-37"/><linearGradient id="linear-gradient-55-coding-1-37" x1="384.25" y1="-656.89" x2="382.21" y2="-547.82" xlink:href="#linear-gradient-42-coding-1-37"/><linearGradient id="linear-gradient-56-coding-1-37" x1="332" y1="-653.11" x2="330.07" y2="-549.71" xlink:href="#linear-gradient-42-coding-1-37"/><linearGradient id="linear-gradient-57-coding-1-37" x1="390.9" y1="-656.4" x2="388.88" y2="-548.28" xlink:href="#linear-gradient-42-coding-1-37"/><linearGradient id="linear-gradient-58-coding-1-37" x1="311.48" y1="-623.18" x2="309.66" y2="-525.92" xlink:href="#linear-gradient-42-coding-1-37"/><linearGradient id="linear-gradient-59-coding-1-37" x1="304.36" y1="-618.33" x2="302.68" y2="-528.48" xlink:href="#linear-gradient-42-coding-1-37"/><linearGradient id="linear-gradient-60-coding-1-37" x1="370.26" y1="-624.25" x2="368.39" y2="-525.09" xlink:href="#linear-gradient-42-coding-1-37"/><linearGradient id="linear-gradient-61-coding-1-37" x1="324.06" y1="-616.39" x2="322.41" y2="-529.21" xlink:href="#linear-gradient-42-coding-1-37"/><linearGradient id="linear-gradient-62-coding-1-37" x1="339.32" y1="-614.37" x2="337.73" y2="-529.95" xlink:href="#linear-gradient-42-coding-1-37"/><linearGradient id="linear-gradient-63-coding-1-37" x1="379.93" y1="-612.44" x2="378.39" y2="-529.73" xlink:href="#linear-gradient-42-coding-1-37"/><linearGradient id="linear-gradient-64-coding-1-37" x1="335.18" y1="-610.41" x2="333.7" y2="-531.17" xlink:href="#linear-gradient-42-coding-1-37"/><linearGradient id="linear-gradient-65-coding-1-37" x1="385.78" y1="-614.38" x2="384.2" y2="-529.87" xlink:href="#linear-gradient-42-coding-1-37"/></defs><path id="background_coding-1-37" class="cls-68_coding-1-37 targetColor" d="M381.42,351.48c-12.21,4.69-25.11,7.55-37.08,12.81-19.54,8.63-35.74,23.3-54.22,33.99-7.97,4.63-16.4,8.42-25.15,11.33-8.64,2.87-17.54,4.9-26.57,6.06-11.99,1.55-24.11,1.84-36.16.88-11.61-.89-23.13-2.65-34.48-5.26-17.09-3.94-33.87-9.14-50.19-15.54-50.66-19.52-83.74-120.68-61.66-168.5,9.72-21.09,28.74-36.22,42.45-54.96,25.41-34.79,33.06-82.56,66.41-109.85,21.61-17.67,51.02-23.51,78.83-21.33,27.81,2.18,54.47,11.74,80.4,22.05,12.51,4.96,25.19,10.28,35.31,19.19,17.84,15.66,25.05,39.74,36.33,60.63,18.44,34.19,49.62,62.91,55.63,101.21,7.11,45.6-26.79,90.72-69.85,107.29Z" style="fill: rgb(124, 58, 237);"/><g id="keyboard_coding-1-37"><rect class="cls-71_coding-1-37 targetColor" x="165.82" y="297.18" width="134.88" height="52.1" style="fill: rgb(124, 58, 237);"/><rect class="cls-1_coding-1-37" x="165.82" y="297.18" width="134.88" height="52.1"/><rect class="cls-71_coding-1-37 targetColor" x="165.82" y="293.95" width="134.88" height="52.1" style="fill: rgb(124, 58, 237);"/><rect class="cls-60_coding-1-37" x="171.1" y="302.61" width="8.89" height="7.68"/><rect class="cls-61_coding-1-37" x="171.1" y="311.7" width="8.89" height="7.68"/><rect class="cls-59_coding-1-37" x="171.1" y="320.79" width="8.89" height="7.68"/><rect class="cls-65_coding-1-37" x="171.1" y="329.9" width="8.89" height="7.68"/><rect class="cls-66_coding-1-37" x="182.82" y="302.61" width="8.89" height="7.68"/><rect class="cls-64_coding-1-37" x="182.82" y="311.7" width="8.89" height="7.68"/><rect class="cls-62_coding-1-37" x="182.82" y="320.79" width="8.89" height="7.68"/><rect class="cls-63_coding-1-37" x="182.82" y="329.9" width="8.89" height="7.68"/><rect class="cls-19_coding-1-37" x="194.55" y="302.61" width="8.89" height="7.68"/><rect class="cls-16_coding-1-37" x="194.55" y="311.7" width="8.89" height="7.68"/><rect class="cls-17_coding-1-37" x="194.55" y="320.79" width="8.89" height="7.68"/><rect class="cls-18_coding-1-37" x="194.55" y="329.9" width="8.89" height="7.68"/><rect class="cls-27_coding-1-37" x="206.27" y="302.61" width="8.89" height="7.68"/><rect class="cls-23_coding-1-37" x="206.27" y="311.7" width="8.89" height="7.68"/><rect class="cls-21_coding-1-37" x="206.27" y="320.79" width="8.89" height="7.68"/><rect class="cls-20_coding-1-37" x="218" y="302.61" width="8.89" height="7.68"/><rect class="cls-26_coding-1-37" x="218" y="311.7" width="8.89" height="7.68"/><rect class="cls-22_coding-1-37" x="218" y="320.79" width="8.89" height="7.68"/><rect class="cls-29_coding-1-37" x="229.72" y="302.61" width="8.89" height="7.68"/><rect class="cls-25_coding-1-37" x="229.72" y="311.7" width="8.89" height="7.68"/><rect class="cls-28_coding-1-37" x="229.72" y="320.79" width="8.89" height="7.68"/><rect class="cls-24_coding-1-37" x="241.44" y="302.61" width="8.89" height="7.68"/><rect class="cls-31_coding-1-37" x="241.44" y="311.7" width="8.89" height="7.68"/><rect class="cls-15_coding-1-37" x="241.44" y="320.79" width="8.89" height="7.68"/><rect class="cls-32_coding-1-37" x="253.16" y="302.61" width="8.89" height="7.68"/><rect class="cls-30_coding-1-37" x="253.16" y="311.7" width="8.89" height="7.68"/><rect class="cls-14_coding-1-37" x="253.16" y="320.79" width="8.89" height="7.68"/><rect class="cls-5_coding-1-37" x="264.88" y="302.61" width="8.89" height="7.68"/><rect class="cls-7_coding-1-37" x="264.88" y="311.7" width="8.89" height="7.68"/><rect class="cls-8_coding-1-37" x="264.88" y="320.79" width="8.89" height="7.68"/><rect class="cls-6_coding-1-37" x="264.88" y="329.9" width="8.89" height="7.68"/><rect class="cls-4_coding-1-37" x="276.61" y="302.61" width="8.89" height="7.68"/><rect class="cls-11_coding-1-37" x="276.61" y="311.7" width="8.89" height="7.68"/><rect class="cls-13_coding-1-37" x="276.61" y="320.79" width="8.89" height="7.68"/><rect class="cls-9_coding-1-37" x="276.61" y="329.9" width="8.89" height="7.68"/><rect class="cls-12_coding-1-37" x="288.33" y="302.61" width="8.89" height="7.68"/><rect class="cls-3_coding-1-37" x="288.33" y="311.7" width="8.89" height="7.68"/><rect class="cls-10_coding-1-37" x="288.33" y="320.79" width="8.89" height="7.68"/><rect class="cls-41_coding-1-37" x="288.33" y="329.9" width="8.89" height="7.68"/><rect class="cls-42_coding-1-37" x="192.8" y="330.4" width="69.52" height="7.53"/></g><g id="screen_coding-1-37"><polygon class="cls-2_coding-1-37 targetColor" points="335.89 267.85 112.76 267.85 52.4 142 411.35 142 335.89 267.85" style="fill: rgb(124, 58, 237);"/><path class="cls-67_coding-1-37" d="M162.87,255.03h-87.71c-5.1,0-10.56-2.85-12.21-6.37l-15.08-32.29c-1.64-3.52,1.16-6.37,6.26-6.37h87.72c5.09,0,10.55,2.85,12.2,6.37l15.08,32.26c1.65,3.52-1.16,6.4-6.26,6.4Z"/><path class="cls-69_coding-1-37" d="M157.21,263.09h-87.72c-5.09,0-10.56-2.85-12.2-6.37l-15.08-32.26c-1.62-3.52,1.16-6.4,6.26-6.4h87.71c5.1,0,10.56,2.86,12.21,6.38l15.12,32.28c1.6,3.52-1.2,6.37-6.29,6.37Z"/><path class="cls-67_coding-1-37" d="M319.51,226.61h87.72c5.1,0,10.56-2.86,12.21-6.37l15.07-32.27c1.65-3.51-1.16-6.37-6.25-6.37h-87.72c-5.09,0-10.56,2.86-12.21,6.37l-15.11,32.27c-1.61,3.51,1.19,6.37,6.28,6.37Z"/><path class="cls-69_coding-1-37" d="M319.51,237.93h87.72c5.1,0,10.56-2.86,12.21-6.38l15.07-32.26c1.65-3.51-1.16-6.37-6.25-6.37h-87.72c-5.09,0-10.56,2.86-12.21,6.37l-15.11,32.26c-1.61,3.52,1.19,6.38,6.28,6.38Z"/><polygon class="cls-39_coding-1-37" points="136.82 165.94 202.64 165.94 203.38 170.66 138.99 170.66 136.82 165.94"/><polygon class="cls-40_coding-1-37" points="140.94 174.9 179.45 174.9 180.58 178.98 142.82 178.98 140.94 174.9"/><polygon class="cls-35_coding-1-37" points="194.99 174.9 316.18 174.9 314.6 179 195.81 179 194.99 174.9"/><polygon class="cls-33_coding-1-37" points="163.97 183.16 214.82 183.16 215.24 187.12 165.41 187.12 163.97 183.16"/><polygon class="cls-34_coding-1-37" points="182.44 190.76 240.7 190.76 240.61 194.48 183.48 194.48 182.44 190.76"/><polygon class="cls-38_coding-1-37" points="244.5 190.76 293.34 190.76 292.12 194.88 244.33 194.88 244.5 190.76"/><polygon class="cls-36_coding-1-37" points="184.34 197.82 227.67 197.82 227.83 201.06 185.25 201.06 184.34 197.82"/><polygon class="cls-37_coding-1-37" points="231.83 197.82 321.25 197.82 319.6 201.39 231.92 201.39 231.83 197.82"/><polygon class="cls-51_coding-1-37" points="155.52 206.57 208.98 206.57 209.47 209.69 156.97 209.69 155.52 206.57"/><polygon class="cls-49_coding-1-37" points="158.27 212.52 189.78 212.52 190.54 215.26 159.53 215.26 158.27 212.52"/><polygon class="cls-50_coding-1-37" points="202.5 212.52 301.69 212.52 300.63 215.28 203.05 215.28 202.5 212.52"/><polygon class="cls-48_coding-1-37" points="176.68 218.08 218.6 218.08 218.89 220.79 177.66 220.79 176.68 218.08"/><polygon class="cls-52_coding-1-37" points="191.6 223.3 239.96 223.3 239.91 225.86 192.33 225.86 191.6 223.3"/><polygon class="cls-46_coding-1-37" points="243.12 223.3 283.65 223.3 282.81 226.14 243 226.14 243.12 223.3"/><polygon class="cls-47_coding-1-37" points="192.92 228.18 229.11 228.18 229.22 230.46 193.55 230.46 192.92 228.18"/><polygon class="cls-44_coding-1-37" points="232.58 228.18 307.26 228.18 306.11 230.69 232.65 230.69 232.58 228.18"/><polygon class="cls-45_coding-1-37" points="168.31 234.34 213.31 234.34 213.65 236.57 169.34 236.57 168.31 234.34"/><polygon class="cls-43_coding-1-37" points="170.26 238.58 196.94 238.58 197.49 240.55 171.18 240.55 170.26 238.58"/><polygon class="cls-53_coding-1-37" points="207.7 238.58 291.65 238.58 290.89 240.56 208.1 240.56 207.7 238.58"/><polygon class="cls-54_coding-1-37" points="185.6 242.58 221.25 242.58 221.46 244.55 186.31 244.55 185.6 242.58"/><polygon class="cls-55_coding-1-37" points="198.11 246.37 239.45 246.37 239.4 248.25 198.64 248.25 198.11 246.37"/><polygon class="cls-57_coding-1-37" points="242.14 246.37 276.78 246.37 276.16 248.45 242.05 248.45 242.14 246.37"/><polygon class="cls-58_coding-1-37" points="199.06 249.97 230.13 249.97 230.21 251.64 199.53 251.64 199.06 249.97"/><polygon class="cls-56_coding-1-37" points="233.12 249.97 297.23 249.97 296.38 251.81 233.16 251.81 233.12 249.97"/><g class="cls-72_coding-1-37"><polygon class="cls-71_coding-1-37 targetColor" points="50.23 226.77 84.02 226.77 84.4 228.56 51.35 228.56 50.23 226.77" style="fill: rgb(124, 58, 237);"/><polygon class="cls-71_coding-1-37 targetColor" points="52.35 230.17 72.12 230.17 72.7 231.72 53.32 231.72 52.35 230.17" style="fill: rgb(124, 58, 237);"/><polygon class="cls-71_coding-1-37 targetColor" points="80.09 230.17 142.32 230.17 141.5 231.73 80.52 231.73 80.09 230.17" style="fill: rgb(124, 58, 237);"/><polygon class="cls-71_coding-1-37 targetColor" points="64.17 233.31 90.28 233.31 90.5 234.82 64.91 234.82 64.17 233.31" style="fill: rgb(124, 58, 237);"/><polygon class="cls-71_coding-1-37 targetColor" points="73.65 236.21 103.57 236.21 103.52 237.61 74.19 237.61 73.65 236.21" style="fill: rgb(124, 58, 237);"/><polygon class="cls-71_coding-1-37 targetColor" points="105.52 236.21 130.59 236.21 129.96 237.77 105.42 237.77 105.52 236.21" style="fill: rgb(124, 58, 237);"/><polygon class="cls-71_coding-1-37 targetColor" points="74.63 238.89 96.88 238.89 96.96 240.12 75.1 240.12 74.63 238.89" style="fill: rgb(124, 58, 237);"/><polygon class="cls-71_coding-1-37 targetColor" points="99.01 238.89 144.91 238.89 144.07 240.24 99.06 240.24 99.01 238.89" style="fill: rgb(124, 58, 237);"/><polygon class="cls-71_coding-1-37 targetColor" points="59.84 242.21 87.27 242.21 87.53 243.41 60.57 243.41 59.84 242.21" style="fill: rgb(124, 58, 237);"/><polygon class="cls-71_coding-1-37 targetColor" points="61.24 244.48 77.42 244.48 77.81 245.52 61.9 245.52 61.24 244.48" style="fill: rgb(124, 58, 237);"/><polygon class="cls-71_coding-1-37 targetColor" points="83.96 244.48 134.88 244.48 134.33 245.52 84.23 245.52 83.96 244.48" style="fill: rgb(124, 58, 237);"/><polygon class="cls-71_coding-1-37 targetColor" points="70.69 246.58 92.22 246.58 92.37 247.62 71.2 247.62 70.69 246.58" style="fill: rgb(124, 58, 237);"/><polygon class="cls-71_coding-1-37 targetColor" points="78.37 248.57 103.19 248.57 103.16 249.54 78.73 249.54 78.37 248.57" style="fill: rgb(124, 58, 237);"/><polygon class="cls-71_coding-1-37 targetColor" points="104.81 248.57 125.62 248.57 125.18 249.65 104.74 249.65 104.81 248.57" style="fill: rgb(124, 58, 237);"/><polygon class="cls-71_coding-1-37 targetColor" points="79.03 250.43 97.62 250.43 97.67 251.29 79.36 251.29 79.03 250.43" style="fill: rgb(124, 58, 237);"/><polygon class="cls-71_coding-1-37 targetColor" points="99.4 250.43 137.74 250.43 137.14 251.38 99.43 251.38 99.4 250.43" style="fill: rgb(124, 58, 237);"/><polygon class="cls-71_coding-1-37 targetColor" points="66.41 252.77 89.5 252.77 89.69 253.62 66.92 253.62 66.41 252.77" style="fill: rgb(124, 58, 237);"/><polygon class="cls-71_coding-1-37 targetColor" points="67.4 254.38 81.1 254.38 81.38 255.13 67.88 255.13 67.4 254.38" style="fill: rgb(124, 58, 237);"/><polygon class="cls-71_coding-1-37 targetColor" points="86.63 254.38 129.72 254.38 129.33 255.13 86.83 255.13 86.63 254.38" style="fill: rgb(124, 58, 237);"/><polygon class="cls-71_coding-1-37 targetColor" points="75.28 255.9 93.58 255.9 93.69 256.65 75.64 256.65 75.28 255.9" style="fill: rgb(124, 58, 237);"/><polygon class="cls-71_coding-1-37 targetColor" points="81.7 257.34 102.92 257.34 102.89 258.05 81.97 258.05 81.7 257.34" style="fill: rgb(124, 58, 237);"/><polygon class="cls-71_coding-1-37 targetColor" points="104.31 257.34 122.09 257.34 121.77 258.14 104.26 258.14 104.31 257.34" style="fill: rgb(124, 58, 237);"/><polygon class="cls-71_coding-1-37 targetColor" points="82.19 258.71 98.14 258.71 98.18 259.35 82.43 259.35 82.19 258.71" style="fill: rgb(124, 58, 237);"/><polygon class="cls-71_coding-1-37 targetColor" points="99.68 258.71 132.59 258.71 132.15 259.41 99.69 259.41 99.68 258.71" style="fill: rgb(124, 58, 237);"/></g><g class="cls-72_coding-1-37"><polygon class="cls-71_coding-1-37 targetColor" points="346.63 202.52 374.41 202.52 373.64 204.05 346.47 204.05 346.63 202.52" style="fill: rgb(124, 58, 237);"/><polygon class="cls-71_coding-1-37 targetColor" points="346.33 205.44 362.58 205.44 362.12 206.77 346.19 206.77 346.33 205.44" style="fill: rgb(124, 58, 237);"/><polygon class="cls-71_coding-1-37 targetColor" points="369.14 205.44 420.28 205.44 418.67 206.78 368.54 206.78 369.14 205.44" style="fill: rgb(124, 58, 237);"/><polygon class="cls-71_coding-1-37 targetColor" points="354.15 208.13 375.61 208.13 374.88 209.42 353.86 209.42 354.15 208.13" style="fill: rgb(124, 58, 237);"/><polygon class="cls-71_coding-1-37 targetColor" points="360.21 210.61 384.8 210.61 383.91 211.82 359.8 211.82 360.21 210.61" style="fill: rgb(124, 58, 237);"/><polygon class="cls-71_coding-1-37 targetColor" points="386.4 210.61 407.01 210.61 405.56 211.95 385.39 211.95 386.4 210.61" style="fill: rgb(124, 58, 237);"/><polygon class="cls-71_coding-1-37 targetColor" points="359.4 212.91 377.68 212.91 377.01 213.96 359.04 213.96 359.4 212.91" style="fill: rgb(124, 58, 237);"/><polygon class="cls-71_coding-1-37 targetColor" points="379.44 212.91 417.18 212.91 415.67 214.07 378.66 214.07 379.44 212.91" style="fill: rgb(124, 58, 237);"/><polygon class="cls-71_coding-1-37 targetColor" points="345.24 215.75 367.79 215.75 367.29 216.78 345.13 216.78 345.24 215.75" style="fill: rgb(124, 58, 237);"/><polygon class="cls-71_coding-1-37 targetColor" points="345.03 217.69 358.33 217.69 358.03 218.59 344.94 218.59 345.03 217.69" style="fill: rgb(124, 58, 237);"/><polygon class="cls-71_coding-1-37 targetColor" points="363.7 217.69 405.56 217.69 404.48 218.59 363.3 218.59 363.7 217.69" style="fill: rgb(124, 58, 237);"/><polygon class="cls-71_coding-1-37 targetColor" points="351.53 219.51 369.22 219.51 368.73 220.39 351.33 220.39 351.53 219.51" style="fill: rgb(124, 58, 237);"/><polygon class="cls-71_coding-1-37 targetColor" points="356.64 221.21 377.05 221.21 376.44 222.04 356.35 222.04 356.64 221.21" style="fill: rgb(124, 58, 237);"/><polygon class="cls-71_coding-1-37 targetColor" points="378.38 221.21 395.48 221.21 394.48 222.13 377.67 222.13 378.38 221.21" style="fill: rgb(124, 58, 237);"/><polygon class="cls-71_coding-1-37 targetColor" points="356.07 222.8 371.34 222.8 370.87 223.54 355.83 223.54 356.07 222.8" style="fill: rgb(124, 58, 237);"/><polygon class="cls-71_coding-1-37 targetColor" points="372.81 222.8 404.33 222.8 403.27 223.62 372.27 223.62 372.81 222.8" style="fill: rgb(124, 58, 237);"/><polygon class="cls-71_coding-1-37 targetColor" points="344.28 224.8 363.28 224.8 362.91 225.53 344.2 225.53 344.28 224.8" style="fill: rgb(124, 58, 237);"/><polygon class="cls-71_coding-1-37 targetColor" points="344.14 226.19 355.39 226.19 355.17 226.83 344.07 226.83 344.14 226.19" style="fill: rgb(124, 58, 237);"/><polygon class="cls-71_coding-1-37 targetColor" points="359.94 226.19 395.36 226.19 394.59 226.83 359.65 226.83 359.94 226.19" style="fill: rgb(124, 58, 237);"/><polygon class="cls-71_coding-1-37 targetColor" points="349.69 227.49 364.74 227.49 364.38 228.13 349.54 228.13 349.69 227.49" style="fill: rgb(124, 58, 237);"/><polygon class="cls-71_coding-1-37 targetColor" points="354.11 228.73 371.55 228.73 371.1 229.34 353.9 229.34 354.11 228.73" style="fill: rgb(124, 58, 237);"/><polygon class="cls-71_coding-1-37 targetColor" points="372.68 228.73 387.3 228.73 386.57 229.4 372.18 229.4 372.68 228.73" style="fill: rgb(124, 58, 237);"/><polygon class="cls-71_coding-1-37 targetColor" points="353.68 229.89 366.8 229.89 366.45 230.44 353.5 230.44 353.68 229.89" style="fill: rgb(124, 58, 237);"/><polygon class="cls-71_coding-1-37 targetColor" points="368.05 229.89 395.11 229.89 394.34 230.5 367.66 230.5 368.05 229.89" style="fill: rgb(124, 58, 237);"/></g></g><g id="hands_coding-1-37"><path class="cls-70_coding-1-37" d="M185.13,329.89c.24-1.03.92-2.31,1.96-1.98.55.18.81.78,1.02,1.31.56,1.47,2.77,3.48,3.31,4.96.1-3.7.24-13.05,2.46-18.4.29-.7,1.1-1.03,1.8-.74.45.19.76.6.83,1.08.86,6.08,1.42,15.92,1.77,13.91.45-2.54,1.85-22.94,5.67-20.61,1.2,3.62.35,17.64-.1,21.43,1.02-5.02,2.93-24.87,6.77-22.75,2.43,6.34-2.61,22.56-.3,28.94.43,1.17,1.34,2.43,2.6,2.34s1.91-1.42,1.99-2.62-.26-2.38-.17-3.58c0-.66.35-1.27.92-1.6,1.11-.48,2.05.92,2.37,2.12,1.5,5.59,1.4,11.49-.28,17.02-1.76,5.78-5.17,10.89-8.52,15.9-.44.74-1.01,1.4-1.68,1.93-.36.24-.75.42-1.16.55-2.89.96-5.92,1.39-8.96,1.28-13.1-.72-11.9-9.16-12.94-16.38-1.34-8.01-1.12-16.2.63-24.13Z"/><path class="cls-69_coding-1-37" d="M185.31,371.09c.53-1.22,1.48-2.2,2.68-2.77.7-.22,1.44-.32,2.18-.3,6.09-.12,12.17.39,18.16,1.52.58.04,1.12.3,1.52.71.21.33.33.7.34,1.09.37,2.98.05,6.01-.92,8.85-.1.43-.35.81-.7,1.07-.39.17-.82.21-1.23.11-6.17-.7-12.37-1.04-18.58-1.02-6.25-.03-6.16-4.32-3.46-9.27Z"/><path class="cls-71_coding-1-37 targetColor" d="M208.64,416.53c-12.08-.93-24.08-2.76-35.89-5.48-.36-1.18-.44-2.43-.23-3.65,1.48-9.17,4.61-17.99,9.24-26.04.39-.85,1.04-1.57,1.85-2.04.64-.27,1.33-.39,2.01-.34,7.6-.18,15.2.41,22.68,1.75,1.12.05,2.17.55,2.92,1.38.4.69.59,1.49.55,2.29.42,10.81-.63,21.62-3.12,32.14Z" style="fill: rgb(124, 58, 237);"/><path class="cls-70_coding-1-37" d="M235.78,367.57c-.5-.92-.88-2.23,0-2.77.43-.23.94-.29,1.41-.16,1.72.28,3.36.95,4.79,1.95,2.21,1.54,4.62,4.01,7.1,2.9,2.14-.97,2.33-3.89,2.19-6.25-.47-7.89-.94-15.78-1.42-23.67,0-.79,0-1.75.68-2.13,1.04-.56,2.06.78,2.5,1.85l5.66,14.32c1.08-3.45-.18-15.29.35-20.54.08-.84.83-1.46,1.67-1.38.56.05,1.04.41,1.26.93,1.71,4.11,3.57,14.79,3.89,17.32.92,7.54,1.4.92,1.67-.34.67-3.14-.2-13.86,1.69-14.68,2.77.2,3.7,3.81,3.76,6.6.06,2.79-1.4,13.6,1.32,14.25,1.2-3.01,1.11-8.49,2.73-8.7,2.53,1.16.3,12.69-.51,15.36-2.4,8-.86,6.95-3.25,14.94-.46,2.01-1.35,3.9-2.59,5.54-1.58,1.6-3.58,2.71-5.78,3.19-13.34,3.72-23.35-8.08-29.13-18.54Z"/><path class="cls-69_coding-1-37" d="M251.85,396.96c0,.71.3,1.38.82,1.85.32.17.67.27,1.04.3,5.44.65,10.96.24,16.25-1.21.56-.1,1.09-.36,1.52-.73.41-.48.65-1.07.7-1.69.52-3.58-1.07-7.08-2.62-10.34-.09-.24-.24-.44-.44-.59-.26-.1-.54-.12-.8-.05-2.59.43-5.19.73-7.81.92-1.9.13-5.03-.48-6.79.25-3.46,1.43-2.2,8.16-1.86,11.29Z"/><path class="cls-71_coding-1-37 targetColor" d="M276.15,408.62c-9.02,2.99-18.3,5.11-27.72,6.32.12-3.7.23-7.52.55-11.23.26-3.16,3.39-9.39,7.24-9.39,3.85-1.66,8.19-1.78,12.37-1.89,1.47,0,3.11,0,4.22.97s1.32,2.36,1.55,3.7c.67,3.8,1.33,7.65,1.79,11.52Z" style="fill: rgb(124, 58, 237);"/></g></svg>