<svg id="_0070_notes" data-name="0070_notes" xmlns="http://www.w3.org/2000/svg" xmlns:xlink="http://www.w3.org/1999/xlink" viewBox="0 0 500 500" data-imageid="notes-58" imageName="Notes" class="illustrations_image" style="width: 188px;"><defs><style>.cls-1_notes-58{fill:#faefec;}.cls-14_notes-58,.cls-2_notes-58,.cls-3_notes-58,.cls-4_notes-58{isolation:isolate;}.cls-2_notes-58,.cls-3_notes-58,.cls-4_notes-58{opacity:0.32;}.cls-2_notes-58{fill:url(#linear-gradient);}.cls-3_notes-58{fill:url(#linear-gradient-2-notes-58);}.cls-4_notes-58{fill:url(#linear-gradient-3-notes-58);}.cls-5_notes-58{fill:#ffc3ca;}.cls-6_notes-58{fill:#ff876a;}.cls-7_notes-58{fill:#ffc65a;}.cls-8_notes-58{fill:#68e1fd;}.cls-9_notes-58{fill:#aa6800;}.cls-10_notes-58{fill:#fa8e00;}.cls-11_notes-58{fill:#ff9d27;}.cls-12_notes-58{fill:#ffac99;}.cls-13_notes-58{opacity:0.55;}.cls-14_notes-58{fill:#505a63;opacity:0.52;}</style><linearGradient id="linear-gradient-notes-58" x1="134.14" y1="1856.86" x2="194.86" y2="1896.67" gradientTransform="matrix(1, 0, 0, -1, 0, 2164.63)" gradientUnits="userSpaceOnUse"><stop offset="0" stop-color="#faefec" stop-opacity="0"/><stop offset="0.98" stop-color="#aa6800"/></linearGradient><linearGradient id="linear-gradient-2-notes-58" x1="272.55" y1="1751.44" x2="289.1" y2="1764.47" xlink:href="#linear-gradient-notes-58"/><linearGradient id="linear-gradient-3-notes-58" x1="219.46" y1="1790.53" x2="246.79" y2="1826.16" xlink:href="#linear-gradient-notes-58"/></defs><polygon id="Base_notes-58" class="cls-1_notes-58" points="48.83 291.34 308.63 436.17 451.17 340.66 205.32 205.2 48.83 291.34"/><g id="Shadow_notes-58"><path class="cls-2_notes-58" d="M187.3,259,109,303l28.66,17.12,76.59-43.53C203.89,269.54,196.33,267.7,187.3,259Z"/><path class="cls-3_notes-58" d="M334.71,359.27l-77.54,45.51,18.06,10,76.6-43.53C341.47,364.24,343.68,367.92,334.71,359.27Z"/><path class="cls-4_notes-58" d="M269.47,289l-97.58,61.91,59.05,33.6,81.4-46.2C302,331.27,278.43,297.67,269.47,289Z"/></g><g id="Note_notes-58"><polygon class="cls-5_notes-58" points="451.17 229.1 373.53 185.63 373.53 244.27 451.17 288.96 451.17 229.1"/><polygon class="cls-6_notes-58" points="310.26 175.45 353.83 200.93 353.83 261.26 310.26 235.16 310.26 175.45"/><path class="cls-7_notes-58" d="M315.33,126.73s.11,31.82-5.67,38.15l24.1,14a25.1,25.1,0,0,0,4.87-11c.51-3.59,2.26-27.29,2.26-27.29Z"/><path class="cls-7_notes-58" d="M344.73,143.75s.11,31.83-5.67,38.15l24.1,14a25,25,0,0,0,4.87-11c.58-3.47,2.33-27.27,2.33-27.27Z"/><path class="cls-8_notes-58 targetColor" d="M209.93,68.07l91.75,53s2.1,79.26-20.87,99.63l-90-52.22S213.56,127.58,209.93,68.07Z" style="fill: rgb(255, 255, 255);"/><polygon class="cls-7_notes-58" points="283.36 107.66 292.11 101.6 308.63 147.76 298.18 151.87 283.36 107.66"/><polygon class="cls-7_notes-58" points="203.89 91.52 233.04 71.6 224.05 63.83 200.73 81.31 203.89 91.52"/><polygon class="cls-8_notes-58 targetColor" points="389.21 189.23 389.21 200.92 433.3 224.91 433.3 214.27 389.21 189.23" style="fill: rgb(255, 255, 255);"/><circle class="cls-9_notes-58" cx="358.14" cy="150.42" r="4.06"/><circle class="cls-9_notes-58" cx="327.99" cy="133.25" r="4.06"/></g><g id="Note-2_notes-58" data-name="Note"><path class="cls-7_notes-58" d="M228.11,295.08c.76,1.23,59.64,34.22,59.64,34.22l40.77-22.87L347,295.67l-22.72-13.18c-5.25-3-36.68-21.22-36.68-21.22Z"/><polygon class="cls-10_notes-58" points="287.75 329.28 287.75 352.12 347 317.82 347 295.67 287.75 329.28"/><polygon class="cls-11_notes-58" points="228.11 295.08 228.11 317.87 287.75 352.12 287.75 329.28 228.11 295.08"/><path class="cls-11_notes-58" d="M323.89,282.12s8,11.76,5.4,23.61c0,0,11.06-7.72,14-20.59C343.23,285.07,331.4,285,323.89,282.12Z"/></g><g id="Character_notes-58"><path class="cls-12_notes-58" d="M211.21,142.38s-.64-4.35,0-6a37,37,0,0,0,1-6.36,1.77,1.77,0,0,1,2,1.11c.62,1.4-.66,5.07-.66,5.07s3.61,7.5,0,10.9S211.21,142.38,211.21,142.38Z"/><path class="cls-5_notes-58" d="M187.24,165.79l24-23.39s5.43,11.8,0,17.2l-22,21.87"/><path class="cls-9_notes-58" d="M182.76,262.56s-3.31,4.59-3,7.28,4.49,7.21,5.44,9.13,1.22,2.8,0,4.2-11.53-7.61-11.77-9.05,1.4-7,1.4-7l-4.58,5.8-3.29-2L174,259"/><path class="cls-9_notes-58" d="M184.07,283.25c-.28-.28-8.4-3.11-8.4-3.11s-3.84-4-3.74-5.51,1.51-7.58,2.95-7.52,1.6,8.08,1.6,8.08Z"/><path class="cls-9_notes-58" d="M193.8,270.16l1,12.24s2.64,1.93,3.29,1.76,2.59-.67,2.62-1-.94-8.65-.66-8.86,4.32,6.37,5.6,6.51,11-5.5,10-7.65-5.6-1-7.93-1a8.11,8.11,0,0,1-7.28-5.28"/><path class="cls-6_notes-58" d="M199.93,237l5.92,31.36s-3.41,4.47-15.65,3.91l-9.09-22.22"/><path class="cls-6_notes-58" d="M202.55,187.83s9.13,13.31,6.31,34.87c-2.49,19.11-21.57,41.62-21.57,41.62s-5.7,2.55-17.56-8.65l13.12-20.85s-12.78-29.59,2.31-48.41"/><g class="cls-13_notes-58"><path class="cls-1_notes-58" d="M227.51,159.07c-.65-7.62,2.5-13.89,7.17-14.28s8.82,5.26,9.46,12.88-2.5,14-7.21,14.34S228.15,166.74,227.51,159.07Zm2.53-.21c.51,6,3.59,10.82,6.72,10.56s5.37-5.6,4.86-11.54-3.58-10.82-6.72-10.56-5.37,5.6-4.87,11.6Z"/></g><path class="cls-12_notes-58" d="M228.28,162.28a1.4,1.4,0,0,1,2.66,0V165l.29-.58a39.07,39.07,0,0,0,2.33-7.7c.32-1.71,2.8-.94,2.56.71a27.88,27.88,0,0,1-.81,3.84l.26-.12a1.75,1.75,0,0,1,2.21,1.12l0,.12a2.45,2.45,0,0,1,0,1.26h.2a1.93,1.93,0,0,1,1.24,2.43,2.4,2.4,0,0,1-.27.53,1.81,1.81,0,0,1,.64,1,2.59,2.59,0,0,1-1.13,2.44c-.93.75-1.92,1.75-2.8,2.56-1.1,1.06-2.34,2.13-3.38,3s-2.71-2-2.8-2.92a1.22,1.22,0,0,1-1.54-.78,1.07,1.07,0,0,1-.05-.47A77.26,77.26,0,0,0,228.28,162.28Z"/><path class="cls-9_notes-58" d="M233.6,165.12q.93-2,1.74-4c.11-.28.57-.17.46.12-.54,1.39-1.14,2.76-1.79,4.11C233.88,165.65,233.46,165.4,233.6,165.12Z"/><path class="cls-5_notes-58" d="M201.16,158.43a43.22,43.22,0,0,1,6.16,6.8c1.72,2.8,8.62,10.4,11.47,8.11s7.88-6.67,7.88-6.67,7.18,4.94,6.44,10.1c0,0-6.38,13-16.34,10.16s-12.43-6.64-12.43-6.64l-1.5,8.49s-12.35,3.86-18.07-1.88c0,0-3.77-24.37-1-28"/><path class="cls-12_notes-58" d="M202.53,143.67c.1.28.31,9.13-2.7,10s-8.12-1.26-9.44-4.06.58-11.73,5.31-12.25S201.69,141.09,202.53,143.67Z"/><path class="cls-9_notes-58" d="M198.89,145.31c-2,1.4-.73,3.89.12,5.53a8.51,8.51,0,0,1,.88,4,5.25,5.25,0,0,0,1.29,3.56,14.88,14.88,0,0,1,1.68,2.68,39.8,39.8,0,0,1-13.29.17,101,101,0,0,1-10.82-1.4,6.53,6.53,0,0,1,.51-2.22c.86-1.95,2.26-3,1.92-5.3a10.77,10.77,0,0,1-.08-5.26c.64-1.81,2.17-2.65,3.62-3.71a8.45,8.45,0,0,0,1.19-1l.31-.51a25.91,25.91,0,0,1,2.68-4.54,7.89,7.89,0,0,1,4.28-2.2,12.8,12.8,0,0,1,9.8,2.24s2.58,2.48,1.76,5.14S200.67,144.1,198.89,145.31Z"/><path class="cls-9_notes-58" d="M201.16,243.49s-10.44,18.09-13.86,20.83l2.91,7.95S202.34,255.25,201.16,243.49Z"/><path class="cls-9_notes-58" d="M183,233.8a56.86,56.86,0,0,0,5.45-22.48.48.48,0,0,1,1,0,58.07,58.07,0,0,1-5.6,23C183.61,234.85,182.76,234.36,183,233.8Z"/></g><g id="Pencil_notes-58"><polyline class="cls-7_notes-58" points="382.19 333.19 407.24 329.28 385.44 351.5"/><ellipse class="cls-8_notes-58 targetColor" cx="382.2" cy="342.82" rx="7.43" ry="9.65" style="fill: rgb(255, 255, 255);"/><polygon class="cls-8_notes-58 targetColor" points="297.1 402.31 385.44 351.5 379.41 333.89 290.76 384.89 297.1 402.31" style="fill: rgb(255, 255, 255);"/><ellipse class="cls-8_notes-58 targetColor" cx="294.21" cy="393.43" rx="7.43" ry="9.65" style="fill: rgb(255, 255, 255);"/><ellipse class="cls-14_notes-58" cx="294.21" cy="393.43" rx="7.43" ry="9.65"/><path class="cls-9_notes-58" d="M407.24,329.28l-9.46,1.47s3.54,1.19,2.52,5.6Z"/></g></svg>